<svg xmlns="http://www.w3.org/2000/svg" viewBox="0 0 15 24" fill="none" class="svg"><path d="M11.7556 5.33333H8.42223C7.80856 5.33333 7.31112 5.8308 7.31112 6.44444V9.77778H11.7556C11.8819 9.77498 12.0018 9.83378 12.0769 9.93544C12.152 10.0371 12.1731 10.1689 12.1333 10.2889L11.3111 12.7333C11.2353 12.9577 11.0257 13.1093 10.7889 13.1111H7.31112V21.4444C7.31112 21.7512 7.06234 22 6.75556 22H3.97779C3.67097 22 3.42223 21.7512 3.42223 21.4444V13.1111H1.75557C1.44875 13.1111 1.20001 12.8623 1.20001 12.5556V10.3333C1.20001 10.0266 1.44875 9.77778 1.75557 9.77778H3.42223V6.44444C3.42223 3.98984 5.41212 2 7.86668 2H11.7556C12.0623 2 12.3111 2.24873 12.3111 2.55556V4.77778C12.3111 5.0846 12.0623 5.33333 11.7556 5.33333Z" fill="currentColor"/></svg>