<svg xmlns="http://www.w3.org/2000/svg" viewBox="0 0 25 24" fill="none"><path fill-rule="evenodd" clip-rule="evenodd" d="M4.82223 2H20.3778C21.6051 2 22.6 2.99492 22.6 4.22222V19.7778C22.6 21.0051 21.6051 22 20.3778 22H4.82223C3.59493 22 2.60001 21.0051 2.60001 19.7778V4.22222C2.60001 2.99492 3.59493 2 4.82223 2ZM8.15557 18.6667C8.46239 18.6667 8.71112 18.4179 8.71112 18.1111V10.3333C8.71112 10.0266 8.46239 9.77778 8.15557 9.77778H6.4889C6.18208 9.77778 5.93334 10.0266 5.93334 10.3333V18.1111C5.93334 18.4179 6.18208 18.6667 6.4889 18.6667H8.15557ZM7.32223 8.66667C6.40175 8.66667 5.65557 7.92048 5.65557 7C5.65557 6.07952 6.40175 5.33333 7.32223 5.33333C8.24271 5.33333 8.9889 6.07952 8.9889 7C8.9889 7.92048 8.24271 8.66667 7.32223 8.66667ZM18.7111 18.6667C19.0179 18.6667 19.2667 18.4179 19.2667 18.1111V13C19.3028 11.2342 17.9973 9.72724 16.2444 9.51111C15.0189 9.39917 13.8314 9.97156 13.1556 11V10.3333C13.1556 10.0266 12.9068 9.77778 12.6 9.77778H10.9333C10.6266 9.77778 10.3778 10.0266 10.3778 10.3333V18.1111C10.3778 18.4179 10.6266 18.6667 10.9333 18.6667H12.6C12.9068 18.6667 13.1556 18.4179 13.1556 18.1111V13.9444C13.1556 13.024 13.9018 12.2778 14.8222 12.2778C15.7427 12.2778 16.4889 13.024 16.4889 13.9444V18.1111C16.4889 18.4179 16.7377 18.6667 17.0444 18.6667H18.7111Z" fill="currentColor"/></svg>