<svg xmlns="http://www.w3.org/2000/svg" viewBox="0 0 31 24" fill="none"><path d="M26.8411 4.89857C26.2341 5.7084 25.5002 6.41482 24.6679 6.99055C24.6679 7.20209 24.6679 7.41363 24.6679 7.63694C24.6746 11.4786 23.1401 15.1622 20.4084 17.8621C17.6766 20.562 13.9763 22.0522 10.1368 21.9986C7.91715 22.0061 5.72588 21.4993 3.7347 20.5178C3.62733 20.4709 3.55808 20.3647 3.55849 20.2475V20.1182C3.55849 19.9494 3.69524 19.8127 3.86392 19.8127C6.04582 19.7407 8.14987 18.9842 9.8784 17.6502C7.90348 17.6104 6.12656 16.4404 5.3088 14.6415C5.2675 14.5433 5.28035 14.4305 5.34274 14.3441C5.40512 14.2577 5.50801 14.2101 5.61422 14.2185C6.21444 14.2787 6.82067 14.2229 7.39978 14.0539C5.21963 13.6013 3.58148 11.7914 3.34704 9.5761C3.33871 9.46982 3.38633 9.36694 3.47271 9.30446C3.55908 9.24211 3.67172 9.22917 3.76994 9.2706C4.35499 9.52877 4.98656 9.66472 5.62597 9.67008C3.71564 8.4163 2.8905 6.03145 3.61722 3.86435C3.69224 3.65377 3.87247 3.4982 4.09167 3.45483C4.31086 3.41144 4.53672 3.48665 4.68621 3.6528C7.26408 6.39642 10.8061 8.03133 14.5654 8.21281C14.4692 7.82858 14.4219 7.43369 14.4245 7.03755C14.4597 4.96043 15.7449 3.11008 17.6785 2.35277C19.6119 1.59548 21.8112 2.08109 23.2466 3.58228C24.2249 3.39589 25.1708 3.06726 26.0541 2.60681C26.1188 2.56642 26.2008 2.56642 26.2656 2.60681C26.3059 2.67155 26.3059 2.75362 26.2656 2.81836C25.8377 3.79807 25.115 4.61977 24.1981 5.16888C25.001 5.07577 25.7897 4.88637 26.5475 4.60477C26.6113 4.56134 26.6951 4.56134 26.7589 4.60477C26.8124 4.62921 26.8524 4.67597 26.8682 4.73258C26.884 4.7892 26.8741 4.84992 26.8411 4.89857Z" fill="currentColor"/></svg>