<svg width="114" height="16" viewBox="0 0 114 16" fill="none" xmlns="http://www.w3.org/2000/svg">
<path d="M103.507 13.4082C102.957 14.1156 102.348 14.6135 101.68 14.9017C101.011 15.1768 100.337 15.3144 99.6554 15.3144C98.5811 15.3144 97.6116 15.131 96.7469 14.7642C95.8953 14.3842 95.1748 13.8667 94.5852 13.2116C93.9956 12.5566 93.5436 11.7902 93.2292 10.9124C92.9148 10.0215 92.7576 9.06509 92.7576 8.04318C92.7576 6.99508 92.9148 6.02558 93.2292 5.1347C93.5436 4.23071 93.9956 3.44463 94.5852 2.77646C95.1748 2.10829 95.8953 1.58424 96.7469 1.20431C97.6116 0.824368 98.5811 0.634399 99.6554 0.634399C100.376 0.634399 101.07 0.74576 101.739 0.968482C102.42 1.1781 103.029 1.49253 103.566 1.91178C104.116 2.33102 104.568 2.84852 104.922 3.46428C105.276 4.08004 105.492 4.78751 105.571 5.58669H102.623C102.439 4.80061 102.086 4.21105 101.562 3.81802C101.038 3.42498 100.402 3.22846 99.6554 3.22846C98.961 3.22846 98.3715 3.36602 97.8867 3.64115C97.402 3.90317 97.0089 4.26346 96.7076 4.722C96.4063 5.16745 96.1836 5.6784 96.0394 6.25486C95.9084 6.83131 95.8429 7.42742 95.8429 8.04318C95.8429 8.63274 95.9084 9.2092 96.0394 9.77256C96.1836 10.3228 96.4063 10.8207 96.7076 11.2661C97.0089 11.7115 97.402 12.0718 97.8867 12.347C98.3715 12.609 98.961 12.74 99.6554 12.74C100.677 12.74 101.463 12.4845 102.014 11.9736C102.577 11.4495 102.905 10.6962 102.996 9.7136H99.8912V7.41432H105.787V15H103.822L103.507 13.4082Z" fill="white"/>
<path d="M83.4509 9.57606H87.0866L85.3179 4.42725H85.2786L83.4509 9.57606ZM83.7457 0.968506H86.9097L92.1568 15H88.9535L87.8923 11.8753H82.6452L81.5447 15H78.4397L83.7457 0.968506Z" fill="white"/>
<path d="M72.8088 3.56256H68.6033V0.968506H80.0997V3.56256H75.8941V15H72.8088V3.56256Z" fill="white"/>
<path d="M55.1377 0.968506H58.2231V6.35314H63.9025V0.968506H66.9878V15H63.9025V8.9472H58.2231V15H55.1377V0.968506Z" fill="white"/>
<path d="M44.4781 10.3425C44.4781 10.8141 44.5632 11.2137 44.7336 11.5412C44.9039 11.8688 45.1266 12.1373 45.4017 12.347C45.69 12.5435 46.024 12.6941 46.404 12.799C46.7839 12.8907 47.177 12.9365 47.5831 12.9365C47.8582 12.9365 48.153 12.9169 48.4674 12.8776C48.7819 12.8252 49.0766 12.7335 49.3518 12.6024C49.6269 12.4714 49.8562 12.2946 50.0396 12.0718C50.223 11.836 50.3147 11.5412 50.3147 11.1875C50.3147 10.8076 50.1903 10.4997 49.9413 10.2639C49.7055 10.028 49.3911 9.83151 48.998 9.6743C48.605 9.51708 48.1596 9.37952 47.6617 9.2616C47.1639 9.14369 46.6595 9.01268 46.1485 8.86857C45.6245 8.73755 45.1135 8.58034 44.6157 8.39692C44.1178 8.2004 43.6724 7.95148 43.2793 7.65015C42.8863 7.34882 42.5653 6.97543 42.3164 6.52998C42.0805 6.07144 41.9626 5.52118 41.9626 4.87922C41.9626 4.15865 42.1133 3.53634 42.4146 3.01229C42.7291 2.47513 43.1352 2.02969 43.6331 1.67595C44.1309 1.32222 44.6943 1.06019 45.3231 0.889874C45.952 0.719558 46.5808 0.634399 47.2097 0.634399C47.9434 0.634399 48.6443 0.719558 49.3125 0.889874C49.9937 1.04709 50.5964 1.30912 51.1204 1.67595C51.6445 2.04279 52.0572 2.51444 52.3585 3.09089C52.6729 3.65425 52.8302 4.34207 52.8302 5.15435H49.8431C49.8169 4.7351 49.7252 4.38792 49.5679 4.11279C49.4238 3.83767 49.2273 3.6215 48.9784 3.46428C48.7295 3.30706 48.4412 3.1957 48.1137 3.1302C47.7993 3.06469 47.4521 3.03194 47.0721 3.03194C46.8232 3.03194 46.5743 3.05814 46.3254 3.11054C46.0764 3.16295 45.8472 3.25466 45.6376 3.38567C45.441 3.51668 45.2773 3.68045 45.1463 3.87697C45.0152 4.07349 44.9497 4.32242 44.9497 4.62374C44.9497 4.89887 45.0021 5.12159 45.1069 5.29191C45.2118 5.46223 45.4148 5.61944 45.7162 5.76356C46.0306 5.90767 46.4564 6.05179 46.9935 6.1959C47.5438 6.34002 48.2578 6.52343 49.1356 6.74616C49.3976 6.79856 49.7579 6.89682 50.2165 7.04093C50.6881 7.17195 51.1532 7.38812 51.6117 7.68945C52.0703 7.99078 52.4633 8.39692 52.7909 8.90787C53.1315 9.40572 53.3018 10.0477 53.3018 10.8338C53.3018 11.4757 53.1774 12.0718 52.9284 12.6221C52.6795 13.1723 52.3061 13.6505 51.8083 14.0567C51.3235 14.4497 50.7143 14.7576 49.9806 14.9803C49.2601 15.203 48.4216 15.3144 47.4652 15.3144C46.6922 15.3144 45.9389 15.2161 45.2052 15.0196C44.4846 14.8362 43.8427 14.5414 43.2793 14.1353C42.7291 13.7291 42.2902 13.2116 41.9626 12.5828C41.6351 11.9539 41.4779 11.2071 41.491 10.3425H44.4781Z" fill="white"/>
<path d="M32.4595 9.57606H36.0951L34.3264 4.42725H34.2871L32.4595 9.57606ZM32.7543 0.968506H35.9182L41.1653 15H37.962L36.9008 11.8753H31.6538L30.5532 15H27.4482L32.7543 0.968506Z" fill="white"/>
<path d="M0.914644 0.968506H4V6.35314H23.1207V0.968506H26.206V15H23.1207V8.9472H4V15H0.914644V0.968506Z" fill="white"/>
<path d="M112.348 3.8997C112.318 4.07657 112.262 4.23624 112.178 4.37872C112.1 4.51628 112.004 4.6342 111.891 4.73245C111.778 4.83071 111.648 4.90687 111.5 4.96091C111.358 5.01004 111.206 5.0346 111.044 5.0346C110.808 5.0346 110.594 4.99284 110.402 4.90932C110.211 4.8258 110.046 4.71035 109.909 4.56296C109.771 4.41065 109.665 4.23379 109.592 4.03235C109.518 3.82601 109.481 3.60492 109.481 3.3691C109.481 3.14802 109.516 2.94167 109.584 2.75006C109.658 2.55354 109.761 2.3865 109.894 2.24894C110.027 2.10646 110.189 1.99346 110.38 1.90994C110.572 1.82642 110.788 1.78466 111.029 1.78466C111.368 1.78466 111.658 1.88047 111.898 2.07207C112.144 2.25877 112.291 2.53389 112.341 2.89745H111.839C111.8 2.71076 111.707 2.55846 111.559 2.44055C111.417 2.32263 111.24 2.26368 111.029 2.26368C110.872 2.26368 110.734 2.29316 110.616 2.35211C110.498 2.41107 110.398 2.48968 110.314 2.58794C110.235 2.6862 110.174 2.80411 110.13 2.94167C110.09 3.07432 110.071 3.2168 110.071 3.3691C110.071 3.53123 110.093 3.68353 110.137 3.82601C110.181 3.96849 110.245 4.09377 110.329 4.20185C110.417 4.30994 110.52 4.39592 110.638 4.45978C110.761 4.52365 110.896 4.55559 111.044 4.55559C111.265 4.55559 111.446 4.49418 111.589 4.37135C111.731 4.24853 111.815 4.09131 111.839 3.8997H112.348ZM113.063 3.3691C113.063 3.03502 113.009 2.72796 112.901 2.44792C112.793 2.16788 112.643 1.92714 112.451 1.72571C112.26 1.52427 112.036 1.36951 111.781 1.26143C111.525 1.14843 111.25 1.09193 110.955 1.09193C110.655 1.09193 110.375 1.14843 110.115 1.26143C109.86 1.36951 109.636 1.52427 109.444 1.72571C109.253 1.92714 109.103 2.16788 108.995 2.44792C108.887 2.72796 108.833 3.03502 108.833 3.3691C108.833 3.68353 108.882 3.97831 108.98 4.25344C109.078 4.52857 109.218 4.7693 109.4 4.97565C109.587 5.18199 109.81 5.34658 110.071 5.4694C110.331 5.58731 110.626 5.64627 110.955 5.64627C111.25 5.64627 111.525 5.59223 111.781 5.48414C112.036 5.37114 112.26 5.21393 112.451 5.0125C112.643 4.81106 112.793 4.57278 112.901 4.29766C113.009 4.01762 113.063 3.7081 113.063 3.3691ZM113.652 3.3691C113.652 3.78179 113.579 4.15764 113.431 4.49663C113.289 4.83563 113.092 5.12549 112.842 5.36623C112.596 5.60697 112.309 5.79366 111.979 5.92631C111.655 6.05896 111.314 6.12529 110.955 6.12529C110.557 6.12529 110.191 6.05651 109.857 5.91894C109.528 5.77646 109.243 5.5824 109.002 5.33675C108.766 5.0911 108.58 4.80124 108.442 4.46715C108.309 4.12816 108.243 3.76214 108.243 3.3691C108.243 2.95641 108.314 2.58057 108.457 2.24157C108.604 1.90257 108.801 1.61271 109.046 1.37197C109.297 1.13123 109.587 0.944541 109.916 0.811891C110.245 0.67924 110.592 0.612915 110.955 0.612915C111.314 0.612915 111.655 0.67924 111.979 0.811891C112.309 0.944541 112.596 1.13123 112.842 1.37197C113.092 1.61271 113.289 1.90257 113.431 2.24157C113.579 2.58057 113.652 2.95641 113.652 3.3691Z" fill="white"/>
</svg>
