<svg xmlns="http://www.w3.org/2000/svg" width="164" height="164" viewBox="0 0 164 164" fill="none" id="svg951313524_2051">
<path d="M163.4 81.6932C163.4 98.2132 158.493 113.587 150.067 126.44C135.48 148.693 110.307 163.4 81.7067 163.4C53 163.4 27.7467 148.587 13.1867 126.2C4.84 113.4 0 98.1066 0 81.6932C0 36.5732 36.5867 -9.19859e-05 81.7067 -9.19859e-05C126.827 -9.19859e-05 163.4 36.5732 163.4 81.6932Z" fill="#FFEE8F"/>
<path d="M139.848 116.763H23.5537V45.3787C23.5537 39.8174 28.063 35.308 33.6244 35.308H129.778C135.34 35.308 139.848 39.8174 139.848 45.3787V116.763Z" fill="#F889E7"/>
<path d="M92.6297 46.1997H70.7724C68.6057 46.1997 66.8484 44.4437 66.8484 42.2757V40.241H96.5537V42.2757C96.5537 44.4437 94.7964 46.1997 92.6297 46.1997Z" fill="#FFEE8F"/>
<path d="M150.067 126.44C135.48 148.693 110.307 163.4 81.7068 163.4C53.0001 163.4 27.7468 148.587 13.1868 126.2C16.6401 123.067 20.1068 119.907 23.5601 116.76H139.853C143.253 119.987 146.653 123.213 150.067 126.44Z" fill="#FEADD2"/>
<path d="M60.0111 105.232H39.4444C37.4871 105.232 35.9004 103.646 35.9004 101.688V82.4751C35.9004 80.5178 37.4871 78.9311 39.4444 78.9311H60.0111C61.9684 78.9311 63.5551 80.5178 63.5551 82.4751V101.688C63.5551 103.646 61.9684 105.232 60.0111 105.232Z" fill="#FEADD2"/>
<path d="M123.958 74.5952H39.4435C37.4875 74.5952 35.9009 73.0085 35.9009 71.0512V60.0432C35.9009 58.0859 37.4875 56.4992 39.4435 56.4992H123.958C125.916 56.4992 127.502 58.0859 127.502 60.0432V71.0512C127.502 73.0085 125.916 74.5952 123.958 74.5952Z" fill="#FEADD2"/>
<path d="M91.9847 105.232H71.418C69.4607 105.232 67.874 103.646 67.874 101.688V82.4751C67.874 80.5178 69.4607 78.9311 71.418 78.9311H91.9847C93.942 78.9311 95.5287 80.5178 95.5287 82.4751V101.688C95.5287 103.646 93.942 105.232 91.9847 105.232Z" fill="#FEADD2"/>
<path d="M123.958 105.232H103.392C101.434 105.232 99.8477 103.646 99.8477 101.688V82.4751C99.8477 80.5178 101.434 78.9311 103.392 78.9311H123.958C125.916 78.9311 127.502 80.5178 127.502 82.4751V101.688C127.502 103.646 125.916 105.232 123.958 105.232Z" fill="#FEADD2"/>
</svg>