<svg xmlns="http://www.w3.org/2000/svg" width="113" height="113" viewBox="0 0 113 113" fill="none" id="svg-2097354823_1731">
<path d="M112.216 56.2217C112.216 87.1496 87.1439 112.222 56.2159 112.222C25.288 112.222 0.215942 87.1496 0.215942 56.2217C0.215942 25.2937 25.288 0.221678 56.2159 0.221678C87.1439 0.221678 112.216 25.2937 112.216 56.2217Z" fill="#FAEBC5"/>
<path d="M62.3107 20.6074C63.6173 24.8609 68.9697 26.5288 72.6347 23.8249C77.8326 19.9873 85.0446 25.0117 82.8448 30.9396C81.2956 35.1178 84.6041 39.4844 89.2246 39.3622C95.7833 39.188 98.5375 47.3194 93.1254 50.8748C89.3114 53.3812 89.3114 58.78 93.1254 61.2863C98.5375 64.8418 95.7833 72.9731 89.2246 72.7989C84.6041 72.6767 81.2956 77.0434 82.8448 81.2215C85.0446 87.1494 77.8326 92.1751 72.6347 88.3363C68.9697 85.6323 63.6173 87.3002 62.3107 91.5537C60.4565 97.5895 51.5435 97.5895 49.6893 91.5537C48.3827 87.3002 43.0303 85.6323 39.3667 88.3363C34.1674 92.1751 26.9568 87.1494 29.1552 81.2215C30.7044 77.0434 27.3973 72.6767 22.7754 72.7989C16.2167 72.9731 13.4625 64.8418 18.8746 61.2863C22.6886 58.78 22.6886 53.3812 18.8746 50.8748C13.4625 47.3194 16.2167 39.188 22.7754 39.3622C27.3973 39.4844 30.7044 35.1178 29.1552 30.9396C26.9568 25.0117 34.1674 19.9873 39.3667 23.8249C43.0303 26.5288 48.3827 24.8609 49.6893 20.6074C51.5435 14.5716 60.4565 14.5716 62.3107 20.6074Z" fill="#FEADD2"/>
<path d="M78 56.0803C78 68.2305 68.1502 78.0803 56 78.0803C43.8498 78.0803 34 68.2305 34 56.0803C34 43.9301 43.8498 34.0803 56 34.0803C68.1502 34.0803 78 43.9301 78 56.0803Z" fill="#FAEBC5"/>
<path d="M72 56.0803C72 64.9167 64.8364 72.0803 56 72.0803C47.1636 72.0803 40 64.9167 40 56.0803C40 47.2439 47.1636 40.0803 56 40.0803C64.8364 40.0803 72 47.2439 72 56.0803Z" fill="#FF9999"/>
</svg>