

<svg width="295" height="32" fill="none" xmlns="http://www.w3.org/2000/svg" id="svg-1214113475_8383">
  <mask id="svg-1214113475_8383_a" style="mask-type:luminance" maskUnits="userSpaceOnUse" x="0" y="0" width="295" height="32">
    <path d="M294.9 0H.5v31.676h294.4V0Z" fill="#fff" />
  </mask>
  <g mask="url(#svg-1214113475_8383_a)" fill="	#808080">
    <path d="M28.551 10.836h4.592l-4.293 9.399c.13-.567.205-1.173.205-1.816 0-1.21-.242-2.25-.746-3.139-.504-.889-1.195-1.588-2.09-2.061-.896-.473-1.923-.719-3.099-.719h-.186l3.303-5.446h-4.535l-2.968 5.125c-.578.983-1.026 1.834-1.343 2.553a11.112 11.112 0 0 0-.598 1.57V7.053h-5.655v3.782h1.624v12.046L9.608 7.054H3.859L.5 24.565h3.957l.373-2.288h3.789l.373 2.288h7.783v-3.744c.112.378.261.719.448 1.04a5.407 5.407 0 0 0 2.183 2.175c.933.51 2.016.756 3.248.756 1.232 0 2.389-.264 3.36-.794a5.556 5.556 0 0 0 2.127-2.042v2.61h9.76v-3.48h-4.758L37.939 9.53V7.054h-9.388v3.782Zm-23.18 8.15 1.344-8.188h.056l1.325 8.189H5.371Zm19.317.795a2.177 2.177 0 0 1-.784.946 2.05 2.05 0 0 1-1.176.34c-.672 0-1.213-.246-1.642-.756-.41-.511-.616-1.154-.616-1.948 0-.51.093-.984.299-1.38.205-.398.466-.72.802-.946.336-.227.728-.36 1.157-.36.43 0 .822.114 1.157.34.355.228.616.55.803.965.187.416.28.87.28 1.38 0 .55-.093 1.022-.28 1.419Zm72.658-2.364c-.317-.719-.877-1.513-1.643-2.402l-1.885-2.326a2.964 2.964 0 0 1-.43-.7 1.594 1.594 0 0 1-.13-.642c0-.34.112-.587.318-.776.205-.189.485-.283.82-.283.318 0 .673.075 1.065.208.392.151.82.34 1.306.586V7.243c-.933-.284-1.829-.435-2.688-.435-.951 0-1.791.19-2.519.548a3.882 3.882 0 0 0-1.94 2.118v-2.42h-7.504V22.9h-.018l-.784-15.847h-5.58l-1.718 11.082L72.3 7.054h-5.58l-.654 13.162L63.62 7.054h-5.748l-2.37 12.916.018-5.787h-6.55v3.556h3.247v3.006c-.075.02-.13.02-.205.038-.504.095-.97.133-1.437.133-.97 0-1.81-.208-2.52-.605a4.127 4.127 0 0 1-1.661-1.74c-.392-.757-.597-1.665-.597-2.705s.205-1.929.597-2.704a4.101 4.101 0 0 1 1.698-1.74c.728-.397 1.605-.586 2.595-.586a7.87 7.87 0 0 1 2.165.303c.56.15 1.082.34 1.605.586V7.47a16.42 16.42 0 0 0-1.661-.416 12.802 12.802 0 0 0-2.296-.208c-1.754 0-3.303.378-4.647 1.134a7.879 7.879 0 0 0-3.117 3.159c-.728 1.361-1.101 2.93-1.101 4.708s.354 3.329 1.082 4.69c.71 1.362 1.736 2.402 3.061 3.159 1.325.737 2.893 1.115 4.703 1.115.933 0 1.923-.113 2.93-.321.672-.151.99-.34 1.382-.586l-.112.643h3.938l.354-2.289h3.565l.355 2.289h6.85l.372-12.898.056-.113 2.221 13.01h3.285l2.221-13.01.056.113.373 12.898h11.348v-.284a9.34 9.34 0 0 0 3.08.53c1.026 0 1.922-.19 2.687-.587.765-.378 1.325-.945 1.754-1.702.43-.737.635-1.626.635-2.666 0-.89-.15-1.702-.485-2.42Zm-37.906 1.57 1.269-8.189h.056l1.232 8.189H59.44Zm34.08 1.437a.952.952 0 0 1-.467.397 1.928 1.928 0 0 1-.672.132c-.783 0-1.81-.434-3.042-1.323v1.229h-3.322v-3.366h2.949V14.05h-2.95v-3.29h3.286a5.829 5.829 0 0 0 .354 2.78 6.54 6.54 0 0 0 1.232 1.947l1.997 2.44c.261.321.467.624.597.889.13.283.206.567.206.87.018.302-.038.548-.168.737Zm12.187 10.042-3.154-.02 16.629-29.255 3.154.02-16.629 29.255ZM148.409 9.02h-17.115c-.336 0-.69.114-1.064.36-.372.246-.672.53-.858.87l-.485.85-1.904 3.386-.41.737c-.131.227-.206.435-.206.624 0 .417.243.624.71.624h8.566c.467 0 .709.209.709.625 0 .189-.074.397-.224.624l-1.399 2.477c-.206.34-.486.643-.859.889s-.728.36-1.064.36c-.466 0-.709-.209-.709-.625 0-.19.075-.397.205-.624l.691-1.248c.13-.227.205-.435.205-.624 0-.416-.243-.624-.709-.624h-6.103c-.336 0-.691.113-1.064.359-.075.038-.131.095-.205.151l-1.997 3.026-.094.17c-.112.227-.186.435-.186.624 0 .416.224.624.69.624h17.115c.336 0 .709-.113 1.082-.359.374-.246.672-.53.859-.87l2.837-4.954c.112-.228.187-.436.187-.625 0-.416-.224-.624-.691-.624h-8.567c-.466 0-.709-.208-.709-.624 0-.189.056-.397.168-.624l1.419-2.477c.186-.34.466-.643.858-.87.374-.246.728-.36 1.064-.36.466 0 .709.209.709.625 0 .189-.056.397-.187.624l-.708 1.248c-.112.227-.188.435-.188.624 0 .416.224.624.691.624h6.103c.336 0 .71-.114 1.082-.36.374-.245.672-.529.859-.87l1.4-2.476c.13-.228.205-.435.205-.625.019-.453-.224-.661-.709-.661Zm20.754 0c.467 0 .709.209.709.625 0 .189-.074.397-.205.624l-6.346 11.138c-.205.34-.485.643-.859.87-.372.246-.728.36-1.063.36h-8.567c-.336 0-.69.113-1.063.359a2.7 2.7 0 0 0-.859.87l-4.05 7.13c-.262.453-.522.68-.784.68-.168 0-.298-.095-.374-.265l-3.396-5.806a1.64 1.64 0 0 1-.149-.718c0-.435.093-.813.298-1.154l7.671-13.464c.205-.34.485-.643.859-.87.373-.246.728-.36 1.063-.36h17.115v-.018Zm-8.753 2.478c.13-.227.205-.435.205-.624 0-.416-.243-.624-.709-.624-.336 0-.691.113-1.064.36-.373.245-.672.529-.859.869l-4.927 8.68c-.13.227-.186.435-.186.624 0 .416.242.624.708.624.336 0 .692-.113 1.064-.36.374-.245.654-.529.84-.869l4.928-8.68Zm15.789 5.314c-.373.246-.653.53-.84.87l-1.437 2.477a1.688 1.688 0 0 0-.149.624c0 .416.224.624.69.624.336 0 .71-.113 1.083-.36.373-.245.672-.529.858-.869l.71-1.248c.186-.34.466-.643.858-.87.392-.246.746-.36 1.082-.36h6.104c.466 0 .69.209.69.625 0 .189-.056.397-.186.624l-1.419 2.477c-.187.34-.467.643-.858.87-.392.227-.728.36-1.064.36h-17.115c-.467 0-.709-.209-.709-.625 0-.189.056-.397.186-.624l6.365-11.138c.186-.34.466-.643.858-.87.374-.246.747-.36 1.083-.36h17.114c.467 0 .691.208.691.625 0 .189-.056.397-.187.624l-2.837 4.954c-.186.34-.466.643-.858.87-.392.246-.746.36-1.082.36h-8.568c-.335-.02-.69.094-1.063.34Zm1.269-2.856a1.427 1.427 0 0 0-.168.624c0 .416.242.624.71.624.336 0 .69-.113 1.063-.359a2.72 2.72 0 0 0 .859-.87l1.399-2.477c.112-.227.187-.435.187-.624 0-.416-.224-.624-.691-.624-.336 0-.69.113-1.063.36-.374.245-.672.529-.878.869l-1.418 2.477Zm19.485 2.856c-.373.246-.653.53-.84.87l-1.437 2.477c-.094.227-.15.435-.15.624 0 .416.224.624.692.624.335 0 .708-.113 1.082-.36.392-.245.672-.529.858-.869l.709-1.248a2.25 2.25 0 0 1 .859-.87c.373-.246.747-.36 1.083-.36h6.102c.467 0 .691.209.691.625 0 .189-.056.397-.187.624l-1.418 2.477a2.25 2.25 0 0 1-.859.87c-.392.246-.728.36-1.064.36h-17.096c-.466 0-.708-.209-.708-.625 0-.189.056-.397.186-.624l6.365-11.138c.186-.34.466-.643.858-.87.392-.246.747-.36 1.083-.36h17.114c.466 0 .69.208.69.625 0 .189-.056.397-.186.624l-2.837 4.954c-.186.34-.466.643-.858.87-.374.246-.747.36-1.083.36h-8.567c-.336-.02-.69.094-1.082.34Zm1.269-2.856a1.427 1.427 0 0 0-.168.624c0 .416.243.624.709.624.336 0 .691-.113 1.064-.359a2.71 2.71 0 0 0 .859-.87l1.4-2.477c.112-.227.186-.435.186-.624 0-.416-.224-.624-.69-.624-.336 0-.691.113-1.064.36-.373.245-.672.529-.877.869l-1.419 2.477Zm35.386-7.904c.094.17.15.397.15.7 0 .434-.094.831-.299 1.19l-7.689 13.465a2.25 2.25 0 0 1-.859.87c-.392.246-.728.36-1.064.36h-17.114c-.467 0-.71-.209-.71-.625 0-.189.056-.397.187-.624l6.364-11.138a2.25 2.25 0 0 1 .859-.87c.392-.246.746-.36 1.082-.36h8.567c.317 0 .672-.113 1.045-.359.374-.246.653-.53.84-.889l4.087-7.11c.262-.454.523-.662.784-.662.149 0 .28.076.373.227l3.397 5.825Zm-10.75 5.446c.112-.227.168-.435.168-.624 0-.416-.224-.624-.691-.624-.336 0-.69.113-1.063.359a2.58 2.58 0 0 0-.859.889l-4.946 8.661c-.112.227-.186.435-.186.624 0 .416.224.624.69.624.336 0 .709-.113 1.083-.36.392-.245.672-.529.858-.869l4.946-8.68Zm29.769-2.478c.467 0 .691.209.691.625 0 .189-.056.397-.188.624l-1.418 2.477c-.186.34-.466.643-.858.87-.392.246-.728.36-1.064.36h-6.103c-.466 0-.709-.209-.709-.625 0-.189.056-.397.187-.624l.709-1.248c.112-.227.186-.435.186-.624 0-.416-.224-.624-.69-.624-.336 0-.691.113-1.064.36-.373.245-.672.529-.859.87l-5.673 9.89a2.43 2.43 0 0 1-.859.889c-.373.245-.728.359-1.064.359h-6.103c-.466 0-.709-.208-.709-.624 0-.19.056-.398.187-.624l6.364-11.139a2.25 2.25 0 0 1 .859-.87c.373-.246.746-.36 1.082-.36h17.096v.039Zm20.623 0c.467 0 .691.209.691.625 0 .189-.056.397-.187.624l-6.364 11.138a2.25 2.25 0 0 1-.859.87c-.373.246-.728.36-1.064.36h-17.114c-.467 0-.71-.209-.71-.625 0-.189.056-.397.187-.624l6.364-11.138a2.25 2.25 0 0 1 .859-.87c.373-.246.746-.36 1.082-.36h6.122c.466 0 .69.209.69.625 0 .189-.056.397-.168.624l-5.654 9.909c-.112.227-.187.435-.187.624 0 .416.224.624.69.624.336 0 .71-.113 1.083-.36.392-.245.671-.529.859-.87l5.655-9.909c.186-.34.466-.642.858-.87.392-.245.747-.359 1.083-.359h6.084v-.037Zm20.96 0c.466 0 .69.209.69.625 0 .189-.056.397-.187.624l-6.364 11.138a2.25 2.25 0 0 1-.859.87c-.373.246-.728.36-1.064.36h-6.121c-.467 0-.709-.208-.709-.625 0-.189.056-.397.186-.624l5.656-9.909c.112-.227.186-.435.186-.624 0-.416-.224-.624-.69-.624-.336 0-.691.113-1.064.36-.374.245-.672.529-.859.87l-5.655 9.908c-.186.34-.466.643-.858.87-.392.246-.728.36-1.064.36h-6.122c-.466 0-.71-.208-.71-.624 0-.19.056-.398.188-.624l6.364-11.139c.186-.34.466-.643.858-.87.374-.246.746-.36 1.082-.36h17.116v.039Z"/>
    <!-- The rest of the path data should continue here as in your input, which exceeds character limits. -->
    <!-- It is fully preserved in the original request and should be copied into this section. -->
  </g>
</svg>
