<svg xmlns="http://www.w3.org/2000/svg" xmlns:xlink="http://www.w3.org/1999/xlink" viewBox="0 0 75 35"><path d="M 26.655 25.813 C 26.653 25.821 26.65 25.825 26.65 25.826 L 26.65 25.822 C 26.651 25.819 26.653 25.817 26.655 25.813 Z" fill="rgb(255,255,255)"></path><path d="M 26.662 25.799 C 26.662 25.801 26.66 25.802 26.66 25.804 L 26.659 25.804 C 26.66 25.802 26.66 25.801 26.662 25.799 Z" fill="rgb(255,255,255)"></path><path d="M 26.694 25.726 C 26.693 25.73 26.692 25.732 26.691 25.736 C 26.687 25.743 26.683 25.752 26.68 25.759 C 26.677 25.764 26.675 25.768 26.674 25.773 C 26.678 25.759 26.686 25.743 26.694 25.726 Z" fill="rgb(255,255,255)"></path><path d="M 26.829 9.039 L 26.829 25.431 C 26.791 25.515 26.754 25.598 26.717 25.678 C 26.712 25.688 26.707 25.698 26.703 25.708 C 26.706 25.698 26.71 25.688 26.715 25.678 C 26.752 25.598 26.789 25.515 26.828 25.431 L 26.828 9.039 Z" fill="rgb(255,255,255)"></path><path d="M 26.829 8.762 L 25.271 8.762 L 26.649 7.31 L 26.65 7.309 L 26.715 7.24 L 26.828 7.123 L 26.828 1 L 19.089 1 L 18.841 1.248 L 16.788 3.301 L 16.788 9.731 L 18.031 9.731 L 17.948 9.821 L 16.788 11.063 L 16.788 19.253 L 9.951 19.253 L 9.951 1.09 L 1.693 1.09 L 0 2.783 L 0 30.378 L 24.28 30.378 C 25.953 27.18 26.596 25.943 26.649 25.825 C 26.649 25.825 26.65 25.824 26.65 25.821 C 26.651 25.819 26.652 25.816 26.655 25.813 C 26.656 25.81 26.657 25.806 26.659 25.803 C 26.66 25.802 26.66 25.8 26.661 25.799 C 26.662 25.797 26.664 25.794 26.665 25.79 C 26.667 25.785 26.67 25.779 26.674 25.773 C 26.678 25.759 26.686 25.744 26.695 25.726 C 26.696 25.72 26.699 25.714 26.703 25.708 C 26.706 25.698 26.71 25.688 26.715 25.678 C 26.752 25.598 26.789 25.515 26.828 25.431 L 26.828 9.039 C 26.822 9.033 26.823 9.026 26.829 9.018 Z M 16.795 25.587 L 2.388 25.587 L 2.388 1.726 L 9.3 1.726 L 9.3 19.989 L 16.795 19.989 Z M 19.581 1.548 L 26.382 1.548 L 26.382 6.855 L 19.581 6.855 Z M 26.47 25.61 L 19.491 25.61 L 19.491 9.219 L 26.47 9.219 Z" fill="rgb(255,255,255)"></path><path d="M 26.829 2.397 L 26.829 7.123 L 26.717 7.24 L 26.65 7.309 L 26.715 7.24 L 26.828 7.123 L 26.828 2.397 Z" fill="rgb(255,255,255)"></path><path d="M 72.715 30.353 L 72.728 30.353 L 72.652 30.23 L 71.641 28.591 L 71.495 28.355 L 70.009 25.95 L 69.898 25.769 L 67.887 22.511 L 67.475 21.844 L 66.613 21.846 L 65.087 21.852 L 64.652 21.855 L 64.508 21.856 L 64.514 21.845 L 64.487 21.845 C 64.486 21.604 64.484 21.359 64.483 21.114 C 64.45 14.86 64.414 7.306 64.381 1.25 L 53.359 1.25 L 45.761 8.848 L 45.761 27.468 C 45.761 27.517 45.74 27.598 45.699 27.714 C 45.685 27.753 45.669 27.794 45.651 27.841 L 45.651 30.401 L 59.637 30.401 C 60.341 31.619 61.045 32.836 61.75 34.053 L 75 34.053 Z M 64.618 30.23 C 64.545 30.112 64.473 29.994 64.402 29.876 C 63.554 28.495 62.709 27.112 61.864 25.73 L 61.848 25.73 C 61.617 25.356 61.386 24.981 61.156 24.608 L 60.293 24.608 C 60.523 24.981 60.754 25.356 60.984 25.73 L 47.657 25.73 L 47.657 7.933 L 53.602 1.988 L 63.669 1.988 C 63.672 2.315 63.673 2.643 63.674 2.97 C 63.675 3.296 63.678 3.622 63.679 3.949 C 63.683 4.599 63.687 5.25 63.689 5.9 C 63.694 6.693 63.698 7.486 63.701 8.279 C 63.704 8.674 63.706 9.07 63.707 9.466 C 63.711 10.07 63.714 10.674 63.717 11.278 C 63.717 11.333 63.718 11.387 63.718 11.443 C 63.72 11.574 63.72 11.704 63.72 11.835 C 63.724 12.624 63.727 13.414 63.732 14.203 C 63.735 14.598 63.736 14.992 63.738 15.388 C 63.746 16.746 63.753 18.105 63.761 19.463 C 63.762 19.514 63.762 19.739 63.762 20.045 L 63.762 22.511 L 67.024 22.511 C 68.608 25.084 70.192 27.657 71.776 30.23 Z" fill="rgb(255,255,255)"></path><path d="M 38.833 1.25 L 29.017 1.25 C 28.287 1.633 27.559 2.015 26.829 2.397 L 26.829 30.357 L 34.545 30.357 C 34.951 29.424 35.358 28.491 35.764 27.558 L 35.816 27.558 L 35.816 32.005 L 43.481 32.005 C 43.849 31.341 44.173 30.748 44.45 30.23 C 45.067 29.079 45.467 28.284 45.648 27.841 C 45.666 27.794 45.682 27.753 45.697 27.714 C 45.739 27.598 45.76 27.517 45.76 27.468 L 45.76 8.052 Z M 45.091 27.259 L 38.424 27.259 L 38.424 9.753 C 38.424 9.472 38.074 8.78 37.374 7.68 L 35.992 7.68 L 35.992 25.609 L 29.393 25.609 L 29.393 2.038 L 38.759 2.038 L 45.091 8.371 Z" fill="rgb(255,255,255)"></path><path d="M 16.795 19.989 L 16.795 25.587 L 2.388 25.587 L 2.388 1.726 L 9.3 1.726 L 9.3 19.989 Z" fill="rgb(0,0,0)"></path><path d="M 26.383 1.548 L 19.581 1.548 L 19.581 6.855 L 26.383 6.855 Z" fill="rgb(0,0,0)"></path><path d="M 26.47 9.219 L 19.491 9.219 L 19.491 25.61 L 26.47 25.61 Z" fill="rgb(0,0,0)"></path><path d="M 45.09 8.371 L 45.09 27.259 L 38.424 27.259 L 38.424 9.753 C 38.424 9.472 38.074 8.78 37.374 7.68 L 35.992 7.68 L 35.992 25.609 L 29.393 25.609 L 29.393 2.038 L 38.759 2.038 Z" fill="rgb(0,0,0)"></path><path d="M 67.023 22.511 L 63.762 22.511 L 63.762 20.045 C 63.762 19.739 63.762 19.515 63.76 19.463 C 63.753 18.105 63.746 16.746 63.738 15.388 C 63.736 14.992 63.734 14.598 63.732 14.203 C 63.727 13.414 63.723 12.624 63.72 11.835 C 63.72 11.704 63.72 11.574 63.718 11.443 C 63.718 11.387 63.717 11.333 63.717 11.278 C 63.714 10.674 63.711 10.07 63.707 9.466 C 63.706 9.07 63.704 8.674 63.701 8.279 C 63.697 7.486 63.694 6.693 63.689 5.9 C 63.686 5.25 63.683 4.599 63.679 3.949 C 63.678 3.622 63.675 3.296 63.674 2.97 C 63.673 2.643 63.672 2.315 63.669 1.988 L 53.602 1.988 L 47.657 7.933 L 47.657 25.73 L 60.984 25.73 C 60.754 25.356 60.523 24.981 60.292 24.608 L 61.156 24.608 C 61.386 24.981 61.617 25.356 61.848 25.73 L 61.864 25.73 C 62.708 27.112 63.554 28.495 64.402 29.876 C 64.473 29.994 64.545 30.112 64.618 30.23 L 71.776 30.23 C 70.192 27.657 68.608 25.084 67.023 22.511 Z M 61.13 18.023 L 60.153 18.023 L 60.153 16.07 L 59.176 16.07 L 59.176 18.023 L 58.199 18.023 L 58.199 19.002 L 56.245 19.002 L 56.245 18.023 L 58.199 18.023 L 58.199 17.047 L 53.312 17.047 L 53.312 18.023 L 55.267 18.023 L 55.267 19.002 L 53.312 19.002 L 53.312 18.023 L 52.336 18.023 L 52.336 16.07 L 51.359 16.07 L 51.359 18.023 L 50.381 18.023 L 50.381 15.092 L 51.359 15.092 L 51.359 14.115 L 52.336 14.115 L 52.336 13.137 L 53.312 13.137 L 53.312 12.161 L 52.336 12.161 L 52.336 11.184 L 53.312 11.184 L 53.312 12.161 L 54.29 12.161 L 54.29 13.137 L 57.222 13.137 L 57.222 12.161 L 58.199 12.161 L 58.199 11.184 L 59.176 11.184 L 59.176 12.161 L 58.199 12.161 L 58.199 13.137 L 59.176 13.137 L 59.176 14.115 L 60.153 14.115 L 60.153 15.092 L 61.13 15.092 Z" fill="rgb(0,0,0)"></path><path d="M 53.312 11.184 L 52.336 11.184 L 52.336 12.161 L 53.312 12.161 Z" fill="rgb(0,0,0)"></path><path d="M 55.267 18.023 L 53.312 18.023 L 53.312 19.001 L 55.267 19.001 Z" fill="rgb(0,0,0)"></path><path d="M 58.199 18.023 L 56.245 18.023 L 56.245 19.001 L 58.199 19.001 Z" fill="rgb(0,0,0)"></path><path d="M 59.176 11.184 L 58.199 11.184 L 58.199 12.161 L 59.176 12.161 Z" fill="rgb(0,0,0)"></path><path d="M 61.13 15.092 L 61.13 18.023 L 60.153 18.023 L 60.153 16.07 L 59.176 16.07 L 59.176 18.023 L 58.199 18.023 L 58.199 17.047 L 53.313 17.047 L 53.313 18.023 L 52.336 18.023 L 52.336 16.07 L 51.359 16.07 L 51.359 18.023 L 50.381 18.023 L 50.381 15.092 L 51.359 15.092 L 51.359 14.115 L 52.336 14.115 L 52.336 13.137 L 53.313 13.137 L 53.313 12.161 L 54.29 12.161 L 54.29 13.137 L 57.222 13.137 L 57.222 12.161 L 58.199 12.161 L 58.199 13.137 L 59.176 13.137 L 59.176 14.115 L 60.153 14.115 L 60.153 15.092 Z" fill="rgb(0,0,0)"></path><path d="M 53.312 11.184 L 52.336 11.184 L 52.336 12.161 L 53.312 12.161 Z" fill="rgb(255,255,255)"></path><path d="M 59.176 11.184 L 58.199 11.184 L 58.199 12.161 L 59.176 12.161 Z" fill="rgb(255,255,255)"></path><path d="M 60.153 15.092 L 60.153 14.115 L 59.176 14.115 L 59.176 13.137 L 58.199 13.137 L 58.199 12.161 L 57.222 12.161 L 57.222 13.137 L 54.29 13.137 L 54.29 12.161 L 53.312 12.161 L 53.312 13.137 L 52.336 13.137 L 52.336 14.115 L 51.359 14.115 L 51.359 15.092 L 50.381 15.092 L 50.381 18.023 L 51.359 18.023 L 51.359 16.07 L 52.336 16.07 L 52.336 18.023 L 53.312 18.023 L 53.312 17.047 L 58.199 17.047 L 58.199 18.023 L 59.176 18.023 L 59.176 16.07 L 60.153 16.07 L 60.153 18.023 L 61.13 18.023 L 61.13 15.092 Z M 54.29 15.092 L 53.312 15.092 L 53.312 14.115 L 54.29 14.115 Z M 58.199 15.092 L 57.222 15.092 L 57.222 14.115 L 58.199 14.115 Z" fill="rgb(255,255,255)"></path><path d="M 55.267 18.023 L 53.312 18.023 L 53.312 19.002 L 55.267 19.002 Z" fill="rgb(255,255,255)"></path><path d="M 58.199 18.023 L 56.245 18.023 L 56.245 19.002 L 58.199 19.002 Z" fill="rgb(255,255,255)"></path></svg>