<svg width="134" height="32" viewBox="0 0 134 32" fill="none" xmlns="http://www.w3.org/2000/svg">
<path fill-rule="evenodd" clip-rule="evenodd" d="M27.5784 12.6282L25.4304 23.7342V23.7282C24.8844 26.5482 22.4124 28.5882 19.5384 28.5882H10.4544H10.4484C7.56841 28.5882 5.10241 26.5482 4.55641 23.7222L2.40601 12.6102L2.40001 12.6042C2.30401 12.1302 2.50201 11.6502 2.89801 11.3862L14.298 3.58615V3.58015C14.706 3.29815 15.24 3.29815 15.648 3.58015L27.048 11.3802L27.042 11.3742C27.432 11.6382 27.63 12.1182 27.54 12.5922L27.5784 12.6282ZM19.1964 15.2742L14.9964 12.4002L10.7964 15.2742L11.5824 19.3422C11.7444 20.1882 12.4824 20.8002 13.3464 20.7942H16.6344H16.6284C17.4864 20.7882 18.2304 20.1822 18.3924 19.3362L19.1784 15.2682L19.1964 15.2742Z" fill="#FF6314"/>
<path d="M50.7126 8.49231H52.5735V24H50.7126V16.6228H43.0363V24H41.1754V8.49231H43.0363V14.7618H50.7126V8.49231ZM60.0036 24.288C58.9845 24.288 58.054 24.0258 57.2122 23.5015C56.3777 22.9772 55.7094 22.2757 55.2073 21.3969C54.7125 20.5108 54.4651 19.5323 54.4651 18.4615C54.4651 17.6492 54.6091 16.8923 54.8971 16.1908C55.1851 15.4818 55.5802 14.8615 56.0823 14.3298C56.5919 13.7908 57.1826 13.3698 57.8546 13.0671C58.5266 12.7643 59.243 12.6129 60.0036 12.6129C61.0226 12.6129 61.9494 12.8751 62.7839 13.3994C63.6257 13.9237 64.294 14.6289 64.7888 15.5151C65.291 16.4012 65.542 17.3834 65.542 18.4615C65.542 19.2665 65.398 20.0197 65.11 20.7212C64.822 21.4228 64.4233 22.0431 63.9137 22.5822C63.4116 23.1138 62.8245 23.5311 62.1525 23.8338C61.4879 24.1366 60.7716 24.288 60.0036 24.288ZM60.0036 22.4271C60.6977 22.4271 61.3217 22.2462 61.8756 21.8843C62.4368 21.5151 62.8762 21.0314 63.1937 20.4332C63.5186 19.8277 63.6811 19.1705 63.6811 18.4615C63.6811 17.7378 63.515 17.0732 63.1826 16.4677C62.8577 15.8622 62.4183 15.3785 61.8645 15.0166C61.3106 14.6548 60.6903 14.4738 60.0036 14.4738C59.3094 14.4738 58.6854 14.6585 58.1316 15.0277C57.5777 15.3895 57.1383 15.8732 56.8134 16.4788C56.4885 17.0843 56.326 17.7452 56.326 18.4615C56.326 19.2 56.4922 19.872 56.8245 20.4775C57.1568 21.0757 57.6036 21.552 58.1648 21.9065C58.726 22.2535 59.339 22.4271 60.0036 22.4271ZM67.3749 24V12.9231H69.2358V14.3077C69.6272 13.7908 70.1183 13.3809 70.7091 13.0782C71.3072 12.768 71.9571 12.6129 72.6586 12.6129C73.4783 12.6129 74.2278 12.8123 74.9072 13.2111C75.5866 13.6098 76.122 14.1378 76.5134 14.7951C76.9048 14.1378 77.4365 13.6098 78.1085 13.2111C78.7878 12.8123 79.5337 12.6129 80.346 12.6129C81.1805 12.6129 81.9374 12.816 82.6168 13.2222C83.2961 13.6209 83.8352 14.16 84.234 14.8394C84.6401 15.5188 84.8432 16.2757 84.8432 17.1102V24H82.9823V17.5532C82.9823 17.0068 82.8494 16.5009 82.5835 16.0357C82.3177 15.5705 81.9595 15.1975 81.5091 14.9169C81.0586 14.6363 80.5601 14.496 80.0137 14.496C79.4672 14.496 78.9688 14.6289 78.5183 14.8948C78.0678 15.1532 77.7097 15.5151 77.4438 15.9803C77.178 16.4382 77.0451 16.9625 77.0451 17.5532V24H75.1841V17.5532C75.1841 16.9625 75.0512 16.4382 74.7854 15.9803C74.5195 15.5151 74.1577 15.1532 73.6998 14.8948C73.2494 14.6289 72.7509 14.496 72.2045 14.496C71.6654 14.496 71.1669 14.6363 70.7091 14.9169C70.2586 15.1975 69.9005 15.5705 69.6346 16.0357C69.3688 16.5009 69.2358 17.0068 69.2358 17.5532V24H67.3749ZM91.7199 24.288C90.7008 24.288 89.7704 24.0258 88.9285 23.5015C88.0941 22.9772 87.4258 22.2757 86.9236 21.3969C86.4288 20.5108 86.1815 19.5323 86.1815 18.4615C86.1815 17.6492 86.3255 16.8923 86.6135 16.1908C86.9015 15.4818 87.2965 14.8615 87.7987 14.3298C88.3082 13.7908 88.899 13.3698 89.571 13.0671C90.243 12.7643 90.9593 12.6129 91.7199 12.6129C92.5544 12.6129 93.3187 12.7828 94.0128 13.1225C94.7144 13.4548 95.3125 13.92 95.8073 14.5182C96.3095 15.1163 96.6824 15.8105 96.9261 16.6006C97.1771 17.3908 97.2695 18.2363 97.203 19.1372H88.1642C88.2528 19.7649 88.4596 20.3262 88.7845 20.8209C89.1095 21.3083 89.523 21.696 90.0251 21.984C90.5347 22.272 91.0996 22.4197 91.7199 22.4271C92.3845 22.4271 92.9864 22.2572 93.5255 21.9175C94.0645 21.5705 94.5002 21.0978 94.8325 20.4997L96.7267 20.9428C96.2836 21.9249 95.6153 22.7298 94.7218 23.3575C93.8282 23.9778 92.8276 24.288 91.7199 24.288ZM88.1088 17.6751H95.331C95.2719 17.0548 95.0725 16.4898 94.7328 15.9803C94.3931 15.4634 93.9611 15.0498 93.4368 14.7397C92.9125 14.4295 92.3402 14.2745 91.7199 14.2745C91.0996 14.2745 90.531 14.4258 90.0141 14.7286C89.4971 15.0314 89.0688 15.4412 88.7291 15.9582C88.3968 16.4677 88.1901 17.04 88.1088 17.6751ZM98.9182 12.9231H100.779V24H98.9182V12.9231ZM99.8708 11.1175C99.5754 11.1175 99.328 11.0215 99.1286 10.8295C98.9293 10.6375 98.8296 10.3975 98.8296 10.1095C98.8296 9.82154 98.9293 9.58154 99.1286 9.38954C99.328 9.19754 99.5717 9.10154 99.8597 9.10154C100.148 9.10154 100.391 9.19754 100.591 9.38954C100.79 9.58154 100.89 9.82154 100.89 10.1095C100.89 10.3975 100.79 10.6375 100.591 10.8295C100.399 11.0215 100.159 11.1175 99.8708 11.1175ZM105.954 10.1871V12.9231H109.2V14.784H105.954V24H104.093V14.784H102.664V12.9231H104.093V10.1871C104.093 9.61846 104.23 9.10523 104.503 8.64738C104.784 8.18215 105.157 7.81292 105.622 7.53969C106.095 7.25908 106.612 7.11877 107.173 7.11877C107.586 7.11877 107.989 7.20369 108.38 7.37354C108.772 7.536 109.119 7.77969 109.421 8.10461L108.092 9.42277C107.989 9.28246 107.852 9.17538 107.682 9.10154C107.52 9.02031 107.35 8.97969 107.173 8.97969C106.84 8.97969 106.552 9.09784 106.309 9.33415C106.072 9.57046 105.954 9.85477 105.954 10.1871ZM118.513 12.9231H120.485L114.426 29.5385H112.454L114.459 24L110.482 12.9231H112.52L115.389 21.4412L118.513 12.9231ZM126.79 24.288C125.771 24.288 124.84 24.0258 123.998 23.5015C123.164 22.9772 122.495 22.2757 121.993 21.3969C121.499 20.5108 121.251 19.5323 121.251 18.4615C121.251 17.6492 121.395 16.8923 121.683 16.1908C121.971 15.4818 122.366 14.8615 122.868 14.3298C123.378 13.7908 123.969 13.3698 124.641 13.0671C125.313 12.7643 126.029 12.6129 126.79 12.6129C127.624 12.6129 128.388 12.7828 129.083 13.1225C129.784 13.4548 130.382 13.92 130.877 14.5182C131.379 15.1163 131.752 15.8105 131.996 16.6006C132.247 17.3908 132.339 18.2363 132.273 19.1372H123.234C123.323 19.7649 123.529 20.3262 123.854 20.8209C124.179 21.3083 124.593 21.696 125.095 21.984C125.604 22.272 126.169 22.4197 126.79 22.4271C127.454 22.4271 128.056 22.2572 128.595 21.9175C129.134 21.5705 129.57 21.0978 129.902 20.4997L131.796 20.9428C131.353 21.9249 130.685 22.7298 129.791 23.3575C128.898 23.9778 127.897 24.288 126.79 24.288ZM123.179 17.6751H130.401C130.342 17.0548 130.142 16.4898 129.803 15.9803C129.463 15.4634 129.031 15.0498 128.507 14.7397C127.982 14.4295 127.41 14.2745 126.79 14.2745C126.169 14.2745 125.601 14.4258 125.084 14.7286C124.567 15.0314 124.139 15.4412 123.799 15.9582C123.467 16.4677 123.26 17.04 123.179 17.6751Z" fill="#09261D"/>
</svg>
