<svg xmlns="http://www.w3.org/2000/svg" viewBox="0 0 26 24" fill="none"><path fill-rule="evenodd" clip-rule="evenodd" d="M17.3194 2H8.43056C5.36231 2 2.875 4.48731 2.875 7.55556V16.4444C2.875 19.5127 5.36231 22 8.43056 22H17.3194C20.3876 22 22.875 19.5127 22.875 16.4444V7.55556C22.875 4.48731 20.3876 2 17.3194 2ZM20.9305 16.4444C20.9244 18.4362 19.3112 20.0494 17.3194 20.0556H8.43056C6.43873 20.0494 4.82555 18.4362 4.81945 16.4444V7.55556C4.82555 5.56372 6.43873 3.95054 8.43056 3.94444H17.3194C19.3112 3.95054 20.9244 5.56372 20.9305 7.55556V16.4444ZM18.1527 7.83333C18.7664 7.83333 19.2638 7.33587 19.2638 6.72222C19.2638 6.10858 18.7664 5.61111 18.1527 5.61111C17.5391 5.61111 17.0416 6.10858 17.0416 6.72222C17.0416 7.33587 17.5391 7.83333 18.1527 7.83333ZM12.875 7C10.1136 7 7.875 9.23858 7.875 12C7.875 14.7614 10.1136 17 12.875 17C15.6364 17 17.875 14.7614 17.875 12C17.878 10.673 17.3521 9.39952 16.4137 8.4612C15.4754 7.52288 14.202 6.99704 12.875 7ZM9.81945 12C9.81945 13.6876 11.1874 15.0556 12.875 15.0556C14.5625 15.0556 15.9305 13.6876 15.9305 12C15.9305 10.3124 14.5625 8.94444 12.875 8.94444C11.1874 8.94444 9.81945 10.3124 9.81945 12Z" fill="currentColor"/></svg>