<svg width="167" height="40" viewBox="0 0 167 40" fill="none" xmlns="http://www.w3.org/2000/svg">
<path fill-rule="evenodd" clip-rule="evenodd" d="M33.9431 15.8499L31.2994 29.5188V29.5115C30.6274 32.9822 27.5849 35.493 24.0477 35.493H12.8674H12.86C9.31538 35.493 6.28031 32.9822 5.60831 29.5041L2.96166 15.8278L2.95428 15.8204C2.83612 15.237 3.07981 14.6462 3.5672 14.3213L17.598 4.72131V4.71392C18.1001 4.36684 18.7574 4.36684 19.2595 4.71392L33.2903 14.3139L33.2829 14.3065C33.7629 14.6315 34.0066 15.2222 33.8958 15.8056L33.9431 15.8499ZM23.6268 19.1065L18.4575 15.5693L13.2883 19.1065L14.2557 24.1133C14.4551 25.1545 15.3634 25.9078 16.4268 25.9004H20.4735H20.4662C21.5222 25.893 22.4378 25.1472 22.6372 24.1059L23.6046 19.0992L23.6268 19.1065Z" fill="#FF6314"/>
<path d="M62.8135 10.6154H65.1397V30H62.8135V20.7785H53.2182V30H50.892V10.6154H53.2182V18.4523H62.8135V10.6154ZM74.4272 30.36C73.1534 30.36 71.9903 30.0323 70.938 29.3769C69.8949 28.7215 69.0595 27.8446 68.4318 26.7462C67.8134 25.6385 67.5041 24.4154 67.5041 23.0769C67.5041 22.0615 67.6841 21.1154 68.0441 20.2385C68.4041 19.3523 68.898 18.5769 69.5257 17.9123C70.1626 17.2385 70.9011 16.7123 71.7411 16.3338C72.5811 15.9554 73.4765 15.7662 74.4272 15.7662C75.7011 15.7662 76.8595 16.0938 77.9026 16.7492C78.9549 17.4046 79.7903 18.2862 80.4088 19.3938C81.0365 20.5015 81.3503 21.7292 81.3503 23.0769C81.3503 24.0831 81.1703 25.0246 80.8103 25.9015C80.4503 26.7785 79.9518 27.5538 79.3149 28.2277C78.6872 28.8923 77.9534 29.4138 77.1134 29.7923C76.2826 30.1708 75.3872 30.36 74.4272 30.36ZM74.4272 28.0338C75.2949 28.0338 76.0749 27.8077 76.7672 27.3554C77.4688 26.8938 78.018 26.2892 78.4149 25.5415C78.8211 24.7846 79.0241 23.9631 79.0241 23.0769C79.0241 22.1723 78.8165 21.3415 78.4011 20.5846C77.9949 19.8277 77.4457 19.2231 76.7534 18.7708C76.0611 18.3185 75.2857 18.0923 74.4272 18.0923C73.5595 18.0923 72.7795 18.3231 72.0872 18.7846C71.3949 19.2369 70.8457 19.8415 70.4395 20.5985C70.0334 21.3554 69.8303 22.1815 69.8303 23.0769C69.8303 24 70.038 24.84 70.4534 25.5969C70.8688 26.3446 71.4272 26.94 72.1288 27.3831C72.8303 27.8169 73.5965 28.0338 74.4272 28.0338ZM83.6414 30V16.1538H85.9676V17.8846C86.4568 17.2385 87.0706 16.7262 87.8091 16.3477C88.5568 15.96 89.3691 15.7662 90.246 15.7662C91.2706 15.7662 92.2076 16.0154 93.0568 16.5138C93.906 17.0123 94.5753 17.6723 95.0645 18.4938C95.5537 17.6723 96.2183 17.0123 97.0583 16.5138C97.9076 16.0154 98.8399 15.7662 99.8553 15.7662C100.898 15.7662 101.844 16.02 102.694 16.5277C103.543 17.0262 104.217 17.7 104.715 18.5492C105.223 19.3985 105.477 20.3446 105.477 21.3877V30H103.151V21.9415C103.151 21.2585 102.984 20.6262 102.652 20.0446C102.32 19.4631 101.872 18.9969 101.309 18.6462C100.746 18.2954 100.123 18.12 99.4399 18.12C98.7568 18.12 98.1337 18.2862 97.5706 18.6185C97.0076 18.9415 96.5599 19.3938 96.2276 19.9754C95.8953 20.5477 95.7291 21.2031 95.7291 21.9415V30H93.4029V21.9415C93.4029 21.2031 93.2368 20.5477 92.9045 19.9754C92.5722 19.3938 92.1199 18.9415 91.5476 18.6185C90.9845 18.2862 90.3614 18.12 89.6783 18.12C89.0045 18.12 88.3814 18.2954 87.8091 18.6462C87.246 18.9969 86.7983 19.4631 86.466 20.0446C86.1337 20.6262 85.9676 21.2585 85.9676 21.9415V30H83.6414ZM114.073 30.36C112.799 30.36 111.636 30.0323 110.583 29.3769C109.54 28.7215 108.705 27.8446 108.077 26.7462C107.459 25.6385 107.15 24.4154 107.15 23.0769C107.15 22.0615 107.33 21.1154 107.69 20.2385C108.05 19.3523 108.543 18.5769 109.171 17.9123C109.808 17.2385 110.547 16.7123 111.387 16.3338C112.227 15.9554 113.122 15.7662 114.073 15.7662C115.116 15.7662 116.071 15.9785 116.939 16.4031C117.816 16.8185 118.563 17.4 119.182 18.1477C119.81 18.8954 120.276 19.7631 120.58 20.7508C120.894 21.7385 121.01 22.7954 120.927 23.9215H109.628C109.739 24.7062 109.997 25.4077 110.403 26.0262C110.81 26.6354 111.327 27.12 111.954 27.48C112.591 27.84 113.297 28.0246 114.073 28.0338C114.903 28.0338 115.656 27.8215 116.33 27.3969C117.003 26.9631 117.548 26.3723 117.963 25.6246L120.331 26.1785C119.777 27.4062 118.942 28.4123 117.825 29.1969C116.708 29.9723 115.457 30.36 114.073 30.36ZM109.559 22.0938H118.587C118.513 21.3185 118.263 20.6123 117.839 19.9754C117.414 19.3292 116.874 18.8123 116.219 18.4246C115.563 18.0369 114.848 17.8431 114.073 17.8431C113.297 17.8431 112.587 18.0323 111.94 18.4108C111.294 18.7892 110.759 19.3015 110.334 19.9477C109.919 20.5846 109.66 21.3 109.559 22.0938ZM123.07 16.1538H125.397V30H123.07V16.1538ZM124.261 13.8969C123.892 13.8969 123.583 13.7769 123.334 13.5369C123.084 13.2969 122.96 12.9969 122.96 12.6369C122.96 12.2769 123.084 11.9769 123.334 11.7369C123.583 11.4969 123.887 11.3769 124.247 11.3769C124.607 11.3769 124.912 11.4969 125.161 11.7369C125.41 11.9769 125.535 12.2769 125.535 12.6369C125.535 12.9969 125.41 13.2969 125.161 13.5369C124.921 13.7769 124.621 13.8969 124.261 13.8969ZM131.866 12.7338V16.1538H135.923V18.48H131.866V30H129.539V18.48H127.753V16.1538H129.539V12.7338C129.539 12.0231 129.71 11.3815 130.052 10.8092C130.403 10.2277 130.869 9.76615 131.45 9.42461C132.041 9.07384 132.687 8.89846 133.389 8.89846C133.906 8.89846 134.409 9.00461 134.898 9.21692C135.387 9.42 135.821 9.72461 136.199 10.1308L134.538 11.7785C134.409 11.6031 134.238 11.4692 134.026 11.3769C133.823 11.2754 133.61 11.2246 133.389 11.2246C132.973 11.2246 132.613 11.3723 132.309 11.6677C132.013 11.9631 131.866 12.3185 131.866 12.7338ZM147.564 16.1538H150.029L142.455 36.9231H139.99L142.496 30L137.526 16.1538H140.073L143.66 26.8015L147.564 16.1538ZM157.91 30.36C156.636 30.36 155.473 30.0323 154.421 29.3769C153.377 28.7215 152.542 27.8446 151.914 26.7462C151.296 25.6385 150.987 24.4154 150.987 23.0769C150.987 22.0615 151.167 21.1154 151.527 20.2385C151.887 19.3523 152.381 18.5769 153.008 17.9123C153.645 17.2385 154.384 16.7123 155.224 16.3338C156.064 15.9554 156.959 15.7662 157.91 15.7662C158.953 15.7662 159.908 15.9785 160.776 16.4031C161.653 16.8185 162.401 17.4 163.019 18.1477C163.647 18.8954 164.113 19.7631 164.417 20.7508C164.731 21.7385 164.847 22.7954 164.764 23.9215H153.465C153.576 24.7062 153.834 25.4077 154.241 26.0262C154.647 26.6354 155.164 27.12 155.791 27.48C156.428 27.84 157.134 28.0246 157.91 28.0338C158.741 28.0338 159.493 27.8215 160.167 27.3969C160.841 26.9631 161.385 26.3723 161.801 25.6246L164.168 26.1785C163.614 27.4062 162.779 28.4123 161.662 29.1969C160.545 29.9723 159.294 30.36 157.91 30.36ZM153.396 22.0938H162.424C162.35 21.3185 162.101 20.6123 161.676 19.9754C161.251 19.3292 160.711 18.8123 160.056 18.4246C159.401 18.0369 158.685 17.8431 157.91 17.8431C157.134 17.8431 156.424 18.0323 155.777 18.4108C155.131 18.7892 154.596 19.3015 154.171 19.9477C153.756 20.5846 153.497 21.3 153.396 22.0938Z" fill="white"/>
</svg>
