<svg xmlns="http://www.w3.org/2000/svg" width="100%" viewBox="0 0 60 60" fill="none"><path d="M20.7495 28.5C20.7495 30.425 22.2495 32 24.0745 32H27.8245C29.4245 32 30.7245 30.625 30.7245 28.95C30.7245 27.125 29.9245 26.475 28.7495 26.05L22.7495 23.95C21.5495 23.525 20.7495 22.875 20.7495 21.05C20.7495 19.375 22.0495 18 23.6495 18H27.3995C29.2495 18.025 30.7495 19.575 30.7495 21.5" stroke="white" stroke-width="1.5" stroke-linecap="round" stroke-linejoin="round"></path><path d="M25.7505 32.1249V33.9749" stroke="white" stroke-width="1.5" stroke-linecap="round" stroke-linejoin="round"></path><path d="M25.7505 16.025V17.975" stroke="white" stroke-width="1.5" stroke-linecap="round" stroke-linejoin="round"></path><path d="M25.7245 44.9501C36.7564 44.9501 45.6995 36.0069 45.6995 24.9751C45.6995 13.9432 36.7564 5.00006 25.7245 5.00006C14.6926 5.00006 5.74951 13.9432 5.74951 24.9751C5.74951 36.0069 14.6926 44.9501 25.7245 44.9501Z" stroke="white" stroke-width="1.5" stroke-linecap="round" stroke-linejoin="round"></path><path d="M55.5501 41.8752C54.7251 48.5252 49.2751 53.9752 42.6251 54.8002C38.6001 55.3002 34.8501 54.2002 31.9251 52.0502C30.2501 50.8252 30.6501 48.2252 32.6501 47.6252C40.1751 45.3502 46.1001 39.4002 48.4001 31.8752C49.0001 29.9002 51.6001 29.5002 52.8251 31.1502C54.9501 34.1002 56.0501 37.8502 55.5501 41.8752Z" fill="#FF6314"></path></svg>