<svg xmlns="http://www.w3.org/2000/svg" width="113" height="113" viewBox="0 0 113 113" fill="none" id="svg1265826028_1011">
<path d="M112.428 56.3694C112.428 80.2209 97.5138 100.588 76.4854 108.658C70.2609 111.054 63.4993 112.363 56.421 112.363C49.3564 112.363 42.5948 111.054 36.3703 108.658C15.3557 100.602 0.427856 80.2209 0.427856 56.3694C0.427856 25.4396 25.505 0.362548 56.421 0.362548C87.3508 0.362548 112.428 25.4396 112.428 56.3694Z" fill="#FAEBC5"/>
<path d="M19.003 55.0806H92.9971C93.1252 50.8531 89.0457 46.5901 80.7364 44.7017C89.6651 30.5582 80.4667 21.4101 66.2469 30.29C62.5048 14.0108 49.4966 14.0108 45.7545 30.29C31.5334 21.4101 22.3351 30.5582 31.2637 44.7017C22.9544 46.5901 18.8749 50.8531 19.003 55.0806Z" fill="#FF9999"/>
<path d="M93.0001 55.0806L57.5107 96.3188C56.7126 97.2461 55.2765 97.246 54.4786 96.3186L19.0001 55.0806H93.0001Z" fill="#FEADD2"/>
<path d="M71.0001 55.0806H42.0001C43.0806 48.2848 49.1686 43.0806 56.5055 43.0806C63.8315 43.0806 69.9196 48.2848 71.0001 55.0806Z" fill="#FAEBC5"/>
</svg>