<svg xmlns="http://www.w3.org/2000/svg" width="164" height="164" viewBox="0 0 164 164" fill="none" id="svg-2123062741_2307">
<path d="M163.414 81.6932C163.414 112.373 146.507 139.107 121.507 153.067C119.721 154.067 117.881 155 116.014 155.867C113.547 157.013 111.001 158.04 108.401 158.933C100.041 161.827 91.0675 163.4 81.7208 163.4C72.3742 163.4 63.3875 161.827 55.0275 158.933C52.4275 158.04 49.8942 157.013 47.4142 155.853C45.5475 155 43.7075 154.053 41.9208 153.053C16.9208 139.093 0.0141602 112.36 0.0141602 81.6932C0.0141602 36.5732 36.6008 -9.19859e-05 81.7208 -9.19859e-05C126.841 -9.19859e-05 163.414 36.5732 163.414 81.6932Z" fill="#FFEE8F"/>
<path d="M121.507 40.4913V153.065C117.36 155.385 112.973 157.358 108.4 158.931C100.04 161.825 91.0668 163.398 81.7202 163.398C72.3735 163.398 63.3868 161.825 55.0268 158.931C50.4668 157.358 46.0802 155.385 41.9202 153.051V40.4913C41.9202 33.1979 47.8402 27.278 55.1468 27.278H108.293C115.587 27.278 121.507 33.1979 121.507 40.4913Z" fill="#FF9D65"/>
<path d="M92.6463 38.2861H70.789C68.6223 38.2861 66.865 36.5301 66.865 34.3621V32.3275H96.5703V34.3621C96.5703 36.5301 94.813 38.2861 92.6463 38.2861Z" fill="#FFEE8F"/>
<path d="M112.129 81.0947H51.3024C49.1558 81.0947 47.4158 79.3547 47.4158 77.2081V61.4067C47.4158 59.2601 49.1558 57.5201 51.3024 57.5201H112.129C114.276 57.5201 116.016 59.2601 116.016 61.4067V77.2081C116.016 79.3547 114.276 81.0947 112.129 81.0947Z" fill="#FFBE81"/>
<path d="M75.9331 108.357H51.3024C49.1558 108.357 47.4158 106.617 47.4158 104.469V88.6689C47.4158 86.5223 49.1558 84.7809 51.3024 84.7809H75.9331C78.0798 84.7809 79.8198 86.5223 79.8198 88.6689V104.469C79.8198 106.617 78.0798 108.357 75.9331 108.357Z" fill="#FFBE81"/>
<path d="M112.129 108.357H87.4985C85.3518 108.357 83.6118 106.617 83.6118 104.469V88.6689C83.6118 86.5223 85.3518 84.7809 87.4985 84.7809H112.129C114.276 84.7809 116.016 86.5223 116.016 88.6689V104.469C116.016 106.617 114.276 108.357 112.129 108.357Z" fill="#FFBE81"/>
<path d="M116.014 116.093V155.867C113.548 157.013 111.001 158.04 108.401 158.933C100.041 161.827 91.0676 163.4 81.721 163.4C72.3743 163.4 63.3876 161.827 55.0276 158.933C52.4276 158.04 49.8943 157.013 47.4143 155.853V116.093C47.4143 113.853 49.6543 112.04 52.4143 112.04H111.028C113.788 112.04 116.014 113.853 116.014 116.093Z" fill="#FFBE81"/>
</svg>