<svg xmlns="http://www.w3.org/2000/svg" width="112" height="113" viewBox="0 0 112 113" fill="none" id="svg931022116_1072">
<path d="M112 56.6265C112 70.8262 106.726 83.7863 98.0086 93.6476C88.7958 104.101 75.7546 111.084 61.0746 112.392C59.3946 112.544 57.7007 112.626 55.9931 112.626C54.4094 112.626 52.8395 112.558 51.2972 112.434C36.4658 111.208 23.2731 104.184 13.9914 93.6476C5.27432 83.7863 0 70.8262 0 56.6265C0 25.6929 25.0771 0.626463 55.9931 0.626463C86.9229 0.626463 112 25.6929 112 56.6265Z" fill="#FAEBC5"/>
<path d="M94.2625 40.3647C95.5879 39.7524 97.1013 40.7204 97.1013 42.1803V94.2532C88.1813 104.373 75.5546 111.133 61.3413 112.4V55.5599C72.3151 50.5027 83.2888 45.4341 94.2625 40.3647Z" fill="#FEADD2"/>
<path d="M51.8748 55.5599V112.44C37.5148 111.253 24.7414 104.453 15.7548 94.2533V42.1673C15.7548 40.7107 17.262 39.7426 18.5866 40.3485C29.6827 45.4233 40.7787 50.4973 51.8748 55.5599Z" fill="#FF9999"/>
<path d="M61.3412 55.5598V112.4C59.7145 112.546 58.0745 112.626 56.4212 112.626C54.8878 112.626 53.3678 112.56 51.8745 112.44V55.5598H61.3412Z" fill="#FAEBC5"/>
</svg>