<svg xmlns="http://www.w3.org/2000/svg" width="113" height="113" viewBox="0 0 113 113" fill="none" id="svg-555396547_1806">
<path d="M112.986 56.2337C112.986 87.1497 87.9194 112.227 56.9858 112.227C40.0591 112.227 24.8816 104.722 14.6209 92.8509C11.7837 89.5734 9.30458 85.9516 7.30753 82.0544C3.25834 74.3289 0.98584 65.5567 0.98584 56.2337C0.98584 55.4212 0.999614 54.6225 1.04093 53.8238C1.21998 49.6236 1.85353 45.5336 2.91403 41.6226C4.8973 34.2689 8.32672 27.521 12.8993 21.6959C15.4472 18.4459 18.3533 15.4714 21.5623 12.8686C28.9996 6.76806 38.0345 2.56788 47.9371 0.95667C50.8845 0.474684 53.9007 0.226806 56.9858 0.226806C72.3287 0.226806 86.2529 6.39625 96.3484 16.394C106.623 26.5571 112.986 40.6449 112.986 56.2337Z" fill="#FAEBC5"/>
<path d="M40.0759 82.1206H26.7933C24.8359 82.1206 23.2493 80.5339 23.2493 78.5766V61.3846C23.2493 59.4273 24.8359 57.8406 26.7933 57.8406H40.0759C42.0333 57.8406 43.6199 59.4273 43.6199 61.3846V78.5766C43.6199 80.5339 42.0333 82.1206 40.0759 82.1206Z" fill="#FEADD2"/>
<path d="M87.1786 53.5054H26.7933C24.8359 53.5054 23.2493 51.9187 23.2493 49.9614V36.5947C23.2493 34.6374 24.8359 33.0507 26.7933 33.0507H87.1786C89.1359 33.0507 90.7226 34.6374 90.7226 36.5947V49.9614C90.7226 51.9187 89.1359 53.5054 87.1786 53.5054Z" fill="#FF9999"/>
<path d="M63.6272 82.1206H50.3445C48.3872 82.1206 46.8005 80.5339 46.8005 78.5766V61.3846C46.8005 59.4273 48.3872 57.8406 50.3445 57.8406H63.6272C65.5845 57.8406 67.1712 59.4273 67.1712 61.3846V78.5766C67.1712 80.5339 65.5845 82.1206 63.6272 82.1206Z" fill="#FEADD2"/>
<path d="M87.1787 82.1206H73.8961C71.9387 82.1206 70.3521 80.5339 70.3521 78.5766V61.3846C70.3521 59.4273 71.9387 57.8406 73.8961 57.8406H87.1787C89.1361 57.8406 90.7227 59.4273 90.7227 61.3846V78.5766C90.7227 80.5339 89.1361 82.1206 87.1787 82.1206Z" fill="#FEADD2"/>
</svg>